# xmcd
#
# Track frame offsets: 
#        150
#        31203
#        64985
#        90705
#        113442
#        142868
#        187975
#        225614
#
# Disc length: 3586 seconds
#
# Revision: 0
# Processed by: cddbd v1.5.2PL0 Copyright (c) Steve Scherf et al.
# Submitted via: ExactAudioCopy v0.95b4
#
DISCID=5c0e0008
DTITLE=AMMA - The Essence - CD2
DYEAR=2005
DGENRE=Spirituals
TTITLE0=Ganeshaya Namah Om
TTITLE1=Jaya Gopalaka
TTITLE2=Amma Baramma
TTITLE3=Shrishtiyum Niye
TTITLE4=Viraha Ki Badal
TTITLE5=Where Can I Go
TTITLE6=Chetuletti
TTITLE7=Ambe Jagadambe
EXTD=
EXTT0=
EXTT1=
EXTT2=
EXTT3=
EXTT4=
EXTT5=
EXTT6=
EXTT7=
PLAYORDER=
